<svg width="65" height="49" viewBox="0 0 65 49" fill="none" xmlns="http://www.w3.org/2000/svg">
<path d="M64.4838 18.1485C64.4838 32.2871 56.3715 45.2669 45.7096 52.9156L37.1337 45.9622C44.5507 41.0948 51.2723 31.8236 51.9677 24.4066C51.7359 24.4066 50.1134 24.6384 48.9545 24.6384C42.4647 24.6384 37.829 19.771 37.829 12.8175C37.829 6.0959 43.16 0.533159 50.1134 0.533159C57.7622 0.533159 64.4838 6.79124 64.4838 18.1485ZM27.3989 18.1485C27.3989 32.2871 19.2866 45.2669 8.62465 52.9156L0.0487629 45.9622C7.46575 41.0948 13.9556 31.8236 14.8827 24.4066C14.651 24.4066 13.0285 24.6384 11.8696 24.6384C5.37972 24.6384 0.512325 19.771 0.512325 12.8175C0.512325 6.0959 6.07506 0.533159 13.0285 0.533159C20.6773 0.533159 27.3989 6.79124 27.3989 18.1485Z" fill="#EDC658"/>
</svg>
