<svg width="65" height="48" viewBox="0 0 65 48" fill="none" xmlns="http://www.w3.org/2000/svg">
<path d="M0.516165 29.8515C0.516165 15.7129 8.62849 2.73314 19.2904 -4.91563L27.8663 2.0378C20.4493 6.90519 13.7277 16.1764 13.0323 23.5934C13.2641 23.5934 14.8866 23.3616 16.0455 23.3616C22.5353 23.3616 27.171 28.229 27.171 35.1825C27.171 41.9041 21.84 47.4668 14.8866 47.4668C7.23781 47.4668 0.516165 41.2088 0.516165 29.8515ZM37.6011 29.8515C37.6011 15.7129 45.7134 2.73314 56.3753 -4.91563L64.9512 2.0378C57.5342 6.90519 51.0444 16.1764 50.1173 23.5934C50.349 23.5934 51.9715 23.3616 53.1304 23.3616C59.6203 23.3616 64.4877 28.229 64.4877 35.1825C64.4877 41.9041 58.9249 47.4668 51.9715 47.4668C44.3227 47.4668 37.6011 41.2088 37.6011 29.8515Z" fill="#EDC658"/>
</svg>
